# xmcd CD database file
#
# Track frame offsets:
#	150
#	24450
#	45300
#	69600
#
# Disc length: 1201 seconds
#
# Revision: 0
# Processed by: cddbd v1.5.1PL2 Copyright (c) Steve Scherf et al.
# Submitted via: CDex 1.51
#
DISCID=2a04af04
DTITLE=野猿 - 夜空を待ちながら
DYEAR=1999
DGENRE=JPop
TTITLE0=夜空を待ちながら
TTITLE1=夜明けのanimal
TTITLE2=夜空を待ちながら(Original Karaoke)
TTITLE3=夜明けのanimal(Original Karaoke)
EXTD=YEAR: 1999
EXTT0=
EXTT1=
EXTT2=
EXTT3=
PLAYORDER=
